<?xml version="1.0" standalone="no"?>
<!DOCTYPE svg PUBLIC "-//W3C//DTD SVG 20010904//EN"
 "http://www.w3.org/TR/2001/REC-SVG-20010904/DTD/svg10.dtd">
<svg version="1.0" xmlns="http://www.w3.org/2000/svg"
 width="310.000000pt" height="310.000000pt" viewBox="0 0 310.000000 310.000000"
 preserveAspectRatio="xMidYMid meet">
<metadata>
Created by potrace 1.11, written by Peter Selinger 2001-2013
</metadata>
<g transform="translate(0.000000,310.000000) scale(0.100000,-0.100000)"
fill="#000000" stroke="none">
<path d="M645 2543 c-263 -29 -429 -151 -511 -377 -62 -171 -67 -246 -67 -896
0 -554 2 -595 29 -729 57 -277 215 -454 444 -500 103 -20 125 -22 230 -23 258
-1 435 72 534 220 100 151 133 294 132 574 l-1 153 -212 0 c-117 0 -213 -2
-214 -5 0 -3 -2 -86 -4 -185 -3 -201 -8 -252 -34 -311 -38 -84 -110 -121 -224
-112 -112 9 -165 53 -200 163 -22 69 -22 75 -22 765 0 750 1 769 53 849 33 51
94 82 170 87 142 10 223 -48 248 -177 3 -19 8 -115 9 -214 2 -99 3 -183 4
-187 1 -5 98 -8 217 -8 l216 0 -6 193 c-3 105 -10 212 -17 237 -6 25 -13 56
-15 69 -15 78 -96 223 -153 273 -68 61 -164 106 -277 128 -56 12 -266 20 -329
13z"/>
<path d="M2225 2542 c-283 -34 -473 -206 -515 -464 -32 -202 4 -395 99 -539
61 -92 94 -127 256 -269 72 -62 161 -140 199 -174 234 -205 299 -313 300 -496
0 -109 -25 -168 -88 -205 -83 -49 -206 -35 -271 31 -68 67 -111 203 -119 374
-2 40 -13 50 -44 40 -15 -5 -40 -11 -57 -14 -44 -7 -87 -15 -115 -22 -14 -3
-36 -8 -50 -10 -107 -18 -128 -27 -125 -48 2 -11 6 -52 10 -89 7 -73 7 -75 25
-152 27 -119 99 -255 173 -326 88 -86 209 -138 362 -156 382 -44 669 151 724
495 18 114 2 279 -40 392 -56 152 -167 296 -354 460 -22 19 -96 84 -165 144
-262 229 -303 290 -309 453 -3 79 14 133 56 182 36 43 78 61 148 65 118 6 191
-65 220 -214 13 -64 16 -88 20 -133 2 -27 5 -51 8 -53 2 -2 53 5 113 16 60 10
125 22 144 25 51 8 93 16 111 21 34 9 -19 256 -83 384 -99 196 -247 281 -498
284 -58 1 -118 0 -135 -2z"/>
</g>
</svg>
